<?xml version="1.0" encoding="utf-8"?>
<!-- Generator: Adobe Illustrator 20.0.0, SVG Export Plug-In . SVG Version: 6.00 Build 0)  -->
<svg version="1.1" id="Calque_1" xmlns="http://www.w3.org/2000/svg" xmlns:xlink="http://www.w3.org/1999/xlink" x="0px" y="0px"
	 viewBox="0 0 5669.3 5669.3" style="enable-background:new 0 0 5669.3 5669.3;" xml:space="preserve">
<style type="text/css">
	.st0{fill:#FFFFFF;stroke:#1D1D1B;stroke-width:60;stroke-miterlimit:10;}
</style>
<path class="st0" d="M4528.5,4293H528.8c-3.6,0-6.5-2.9-6.5-6.5V1349c0-3.6,2.9-6.5,6.5-6.5h3999.7c3.6,0,6.5,2.9,6.5,6.5v2937.5
	C4535,4290.1,4532.1,4293,4528.5,4293z"/>
<path class="st0" d="M4796.1,4627.5H796.4c-3.6,0-6.5-2.9-6.5-6.5V1683.5c0-3.6,2.9-6.5,6.5-6.5h3999.7c3.6,0,6.5,2.9,6.5,6.5V4621
	C4802.7,4624.6,4799.7,4627.5,4796.1,4627.5z"/>
<path class="st0" d="M5063.8,4962.1H1064.1c-3.6,0-6.5-2.9-6.5-6.5V2018.1c0-3.6,2.9-6.5,6.5-6.5h3999.7c3.6,0,6.5,2.9,6.5,6.5
	v2937.5C5070.3,4959.2,5067.4,4962.1,5063.8,4962.1z"/>
<rect x="3020.4" y="1027.7" class="st0" width="747.5" height="295.1"/>
<rect x="3288" y="1362.3" class="st0" width="747.5" height="295.1"/>
<rect x="3555.7" y="1696.8" class="st0" width="747.5" height="295.1"/>
</svg>
