<?xml version="1.0" encoding="utf-8"?>
<!-- Generator: Adobe Illustrator 20.0.0, SVG Export Plug-In . SVG Version: 6.00 Build 0)  -->
<svg version="1.1" id="Calque_1" xmlns="http://www.w3.org/2000/svg" xmlns:xlink="http://www.w3.org/1999/xlink" x="0px" y="0px"
	 viewBox="0 0 5669.3 5669.3" style="enable-background:new 0 0 5669.3 5669.3;" xml:space="preserve">
<style type="text/css">
	.st0{fill:#FFFFFF;stroke:#000000;stroke-width:100;stroke-miterlimit:10;}
	.st1{fill:none;stroke:#000000;stroke-width:80;stroke-linecap:round;stroke-linejoin:round;stroke-miterlimit:10;}
</style>
<circle cx="2565" cy="1468.8" r="628.7"/>
<path d="M2006.1,2004.4c0,0-978,815-978,1397.2S1750,2866,1750,2866s-419.2,1071.2-186.3,1304.1s1513.6,465.7,2025.9-46.6
	c232.9-232.9-279.4-1373.9-279.4-1373.9s489,628.7,652,675.3c163,46.6,46.6-791.7-745.2-1373.9l-721.9-628.7L2006.1,2004.4z"/>
<rect x="2712.7" y="2713.9" class="st0" width="1581.5" height="2150.9"/>
<line class="st1" x1="2860.3" y1="2988" x2="4146.7" y2="2988"/>
<line class="st1" x1="2860.3" y1="3257" x2="4146.7" y2="3257"/>
<line class="st1" x1="2860.3" y1="3526" x2="4146.7" y2="3526"/>
<line class="st1" x1="2860.3" y1="3794.9" x2="4146.7" y2="3794.9"/>
<line class="st1" x1="2860.3" y1="4063.9" x2="4146.7" y2="4063.9"/>
<line class="st1" x1="2860.3" y1="4332.9" x2="4146.7" y2="4332.9"/>
<line class="st1" x1="2860.3" y1="4601.9" x2="4146.7" y2="4601.9"/>
</svg>
