<?xml version="1.0" encoding="utf-8"?>
<!-- Generator: Adobe Illustrator 20.0.0, SVG Export Plug-In . SVG Version: 6.00 Build 0)  -->
<svg version="1.1" id="Calque_1" xmlns="http://www.w3.org/2000/svg" xmlns:xlink="http://www.w3.org/1999/xlink" x="0px" y="0px"
	 viewBox="0 0 5669.3 5669.3" style="enable-background:new 0 0 5669.3 5669.3;" xml:space="preserve">
<style type="text/css">
	.st0{fill:none;stroke:#000000;stroke-width:60;stroke-linecap:round;stroke-linejoin:round;stroke-miterlimit:10;}
</style>
<path class="st0" d="M2177,1767.9c0,0,198.9-889.7,858.3-910.7s1350.3,167.5,1287.5,1402.6c-52.3,659.5-460.6,889.7-544.3,983.9
	s-408.2,303.6-523.4,879.3c-115.1,575.7-1245.6,680.4-1203.8-177.9"/>
<path d="M3752.3,2458.8c0,0,314-460.6-130.8-895s-795.5,130.8-795.5,167.5c0,36.6-109.9,397.8-172.7,450.1
	c-62.8,52.3-329.7,319.3-15.7,549.5c99.4,89,141.3,188.4,20.9,298.3s-376.8,382.1-83.7,486.7s518.1,10.5,654.2-350.7
	s-167.5-575.7-183.2-717c-15.7-141.3-83.7-591.4,261.7-743.2S3883.2,2155.2,3752.3,2458.8z"/>
<path class="st0" d="M1736.1,1962.9c439.3,349.4,492.8,1011.9,119.5,1481.2"/>
<path class="st0" d="M1231.6,2324.2c276.2,219.7,309.9,636.3,75.2,931.3"/>
<path class="st0" d="M1509.3,2183c339.8,270.3,381.1,782.6,92.5,1145.6"/>
</svg>
