<?xml version="1.0" encoding="utf-8"?>
<!-- Generator: Adobe Illustrator 20.0.0, SVG Export Plug-In . SVG Version: 6.00 Build 0)  -->
<svg version="1.1" id="Calque_1" xmlns="http://www.w3.org/2000/svg" xmlns:xlink="http://www.w3.org/1999/xlink" x="0px" y="0px"
	 viewBox="0 0 5669.3 5669.3" style="enable-background:new 0 0 5669.3 5669.3;" xml:space="preserve">
<path d="M4555.2,4850.3L797.6,1092.7c-0.6-0.6-0.6-1.5,0-2l373.9-373.9c0.6-0.6,1.5-0.6,2,0l3757.6,3757.6c0.6,0.6,0.6,1.5,0,2
	l-373.9,373.9C4556.7,4850.9,4555.8,4850.9,4555.2,4850.3z"/>
<path d="M684.8,4511.9L4442.4,754.3c0.6-0.6,1.5-0.6,2,0l373.9,373.9c0.6,0.6,0.6,1.5,0,2L1060.8,4887.9c-0.6,0.6-1.5,0.6-2,0
	L684.8,4514C684.3,4513.4,684.3,4512.5,684.8,4511.9z"/>
</svg>
