<?xml version="1.0" encoding="utf-8"?>
<!-- Generator: Adobe Illustrator 20.0.0, SVG Export Plug-In . SVG Version: 6.00 Build 0)  -->
<svg version="1.1" id="Calque_1" xmlns="http://www.w3.org/2000/svg" xmlns:xlink="http://www.w3.org/1999/xlink" x="0px" y="0px"
	 viewBox="0 0 5669.3 5669.3" style="enable-background:new 0 0 5669.3 5669.3;" xml:space="preserve">
<style type="text/css">
	.st0{fill:#FFFFFF;stroke:#FFFFFF;stroke-miterlimit:10;}
	.st1{fill:#FFFFFF;}
</style>
<circle cx="2333.4" cy="1788.5" r="497.1"/>
<path d="M1891.5,2211.9c0,0-773.2,644.3-773.2,1104.6s570.7-423.4,570.7-423.4s-331.4,846.8-147.3,1030.9
	c184.1,184.1,1196.6,368.2,1601.6-36.8c184.1-184.1-220.9-1086.1-220.9-1086.1s386.6,497.1,515.5,533.9
	c128.9,36.8,36.8-625.9-589.1-1086.1l-570.7-497.1L1891.5,2211.9z"/>
<circle class="st0" cx="2796.6" cy="1881.2" r="497.1"/>
<path class="st1" d="M2354.8,2304.6c0,0-773.2,644.3-773.2,1104.6s570.7-423.4,570.7-423.4s-331.4,846.8-147.3,1030.9
	s1196.6,368.2,1601.6-36.8c184.1-184.1-220.9-1086.1-220.9-1086.1s386.6,497.1,515.5,533.9c128.9,36.8,36.8-625.9-589.1-1086.1
	l-570.7-497.1L2354.8,2304.6z"/>
<circle cx="3290.8" cy="1942.9" r="497.1"/>
<path d="M2849,2366.4c0,0-773.2,644.3-773.2,1104.6s570.7-423.4,570.7-423.4s-331.4,846.8-147.3,1030.9s1196.6,368.2,1601.6-36.8
	c184.1-184.1-220.9-1086.1-220.9-1086.1s386.6,497.1,515.5,533.9c128.9,36.8,36.8-625.9-589.1-1086.1l-570.7-497.1L2849,2366.4z"/>
</svg>
