<?xml version="1.0" encoding="utf-8"?>
<!-- Generator: Adobe Illustrator 20.0.0, SVG Export Plug-In . SVG Version: 6.00 Build 0)  -->
<svg version="1.1" id="Calque_1" xmlns="http://www.w3.org/2000/svg" xmlns:xlink="http://www.w3.org/1999/xlink" x="0px" y="0px"
	 viewBox="0 0 5669.3 5669.3" style="enable-background:new 0 0 5669.3 5669.3;" xml:space="preserve">
<style type="text/css">
	.st0{fill:#FFFFFF;stroke:#000000;stroke-width:60;stroke-miterlimit:10;}
</style>
<path class="st0" d="M1102.9,1693.7C792.5,2244,443.2,3665.5,606.2,4125.1c163.1,459.6,474.4,489.2,904.4,96.4
	s363.2-585.6,1208.3-630.1s1015.6,341,1134.2,437.4c118.6,96.4,830.2,956.3,1097.1,111.2c185.3-630.1-341-2298-570.8-2520.4
	c-220.5-213.4-392.9-333.6-904.4-185.3s-674.6,274.3-1223.1,37.1S1266,1404.6,1102.9,1693.7z"/>
<circle class="st0" cx="1667.4" cy="2645.3" r="386.6"/>
<circle cx="3993.9" cy="2420.2" r="140.8"/>
<circle cx="3756.7" cy="2657.4" r="140.8"/>
<circle cx="4016.1" cy="2872.3" r="140.8"/>
<circle cx="4253.3" cy="2642.5" r="140.8"/>
</svg>
