<?xml version="1.0" encoding="utf-8"?>
<!-- Generator: Adobe Illustrator 20.0.0, SVG Export Plug-In . SVG Version: 6.00 Build 0)  -->
<svg version="1.1" id="Calque_1" xmlns="http://www.w3.org/2000/svg" xmlns:xlink="http://www.w3.org/1999/xlink" x="0px" y="0px"
	 viewBox="0 0 5669.3 5669.3" style="enable-background:new 0 0 5669.3 5669.3;" xml:space="preserve">
<style type="text/css">
	.st0{fill:#FFFFFF;stroke:#000000;stroke-width:80;stroke-miterlimit:10;}
	.st1{fill:none;stroke:#000000;stroke-width:80;stroke-linecap:round;stroke-linejoin:round;stroke-miterlimit:10;}
</style>
<path class="st0" d="M4798.1,4498.1H1101.9c-3.6,0-6.5-2.9-6.5-6.5V1777.1c0-3.6,2.9-6.5,6.5-6.5h3696.3c3.6,0,6.5,2.9,6.5,6.5
	v2714.4C4804.7,4495.1,4801.7,4498.1,4798.1,4498.1z"/>
<rect x="1264.2" y="988.5" transform="matrix(6.123234e-17 -1 1 6.123234e-17 -215.2013 5471.0498)" class="st0" width="2727.5" height="3709.3"/>
<line class="st1" x1="1246" y1="3952.3" x2="1246" y2="1734"/>
<line class="st1" x1="1709.9" y1="3952.3" x2="1709.9" y2="1734"/>
<line class="st1" x1="2173.8" y1="3952.3" x2="2173.8" y2="1734"/>
<line class="st1" x1="2637.7" y1="3952.3" x2="2637.7" y2="1734"/>
<line class="st1" x1="3101.5" y1="3952.3" x2="3101.5" y2="1734"/>
<line class="st1" x1="3565.4" y1="3952.3" x2="3565.4" y2="1734"/>
<line class="st1" x1="4029.3" y1="3952.3" x2="4029.3" y2="1734"/>
<path class="st0" d="M4945.5,4519.5H1249.3c-3.6,0-6.5-2.9-6.5-6.5V1798.6c0-3.6,2.9-6.5,6.5-6.5h3696.3c3.6,0,6.5,2.9,6.5,6.5
	v2714.4C4952.1,4516.5,4949.1,4519.5,4945.5,4519.5z"/>
<rect x="3552" y="1501.1" class="st0" width="691" height="272.7"/>
</svg>
