<?xml version="1.0" encoding="utf-8"?>
<!-- Generator: Adobe Illustrator 20.0.0, SVG Export Plug-In . SVG Version: 6.00 Build 0)  -->
<svg version="1.1" id="Calque_1" xmlns="http://www.w3.org/2000/svg" xmlns:xlink="http://www.w3.org/1999/xlink" x="0px" y="0px"
	 viewBox="0 0 5669.3 5669.3" style="enable-background:new 0 0 5669.3 5669.3;" xml:space="preserve">
<g>
	<path d="M4425.2,1927.5c0,51.3-23.6,77-70.9,77s-80.7-51.3-100.3-153.7c-7.8-70.9-15.9-141.6-23.6-212.5
		c-27.4-141.9-73-261.8-135.8-360.2c-82.8-130-218.6-212.8-407.4-248.3c-122-23.6-220.6-33.2-295.3-29.4
		c-185.1,5.2-297.3,9.2-336.5,11.8v3566.4c0,142.2,37.2,230.7,112.2,266.2c39.2,19.9,149.7,31.7,330.7,35.5
		c47.3,3.7,70.6,20.5,70.6,50.2c0,33.7-31.4,50.2-94.3,50.2c-31.7,0-59.1-2-82.8-5.8c-236.2-7.8-403.7-11.8-502-11.8
		c-129.8,0-252,2.9-365.9,8.9c-114.5,5.8-260.1,8.7-437.1,8.7c-90.5,0-135.8-15.6-135.8-47.3c0-35.5,84.5-55.1,254-59.1
		c122,0,200.7-25.4,236.2-76.7c19.6-31.7,29.4-112.5,29.4-242.5V1012.3c-389.6,4-631.8,23.6-726.4,59.1
		c-248,90.5-393.6,332.8-436.9,726.4c-11.8,117.9-39.5,177.1-82.8,177.1c-47.3,0-70.9-41.2-70.9-124c0-43.3,2-86.5,6.1-129.8
		l11.8-136.1c11.8-180.8,29.4-419.3,53.1-714.5h265.9l1204.5,17.9c141.9,4,362.2,4,661.5,0l980.4-17.9
		c7.8,220.6,33.4,547.3,76.7,980.4c0,11.8,2,26.5,6.1,44.4C4423.1,1912.8,4425.2,1923.8,4425.2,1927.5z"/>
</g>
</svg>
